<svg width="164" height="37" viewBox="0 0 164 37" fill="none" xmlns="http://www.w3.org/2000/svg">
<path fill-rule="evenodd" clip-rule="evenodd" d="M38.2595 3.06239C37.3194 2.59024 36.1561 2.45109 34.8561 2.68757C34.0546 2.83396 33.2 3.12352 32.3138 3.56511C31.463 3.99061 30.6484 4.52389 29.8766 5.14244L33.0075 6.71574C33.7793 6.0972 34.5939 5.56392 35.4438 5.13922C36.33 4.69683 37.1836 4.40726 37.9861 4.26087C39.2861 4.02439 40.4494 4.16355 41.3895 4.6357L38.2595 3.06239Z" fill="#F0A72E"/>
<mask id="mask0" mask-type="alpha" maskUnits="userSpaceOnUse" x="0" y="0" width="31" height="35">
<path fill-rule="evenodd" clip-rule="evenodd" d="M0 0.609169H30.3026V34.2347H0V0.609169Z" fill="white"/>
</mask>
<g mask="url(#mask0)">
<path fill-rule="evenodd" clip-rule="evenodd" d="M27.1726 1.17282C26.0865 0.626667 24.7409 0.466602 23.2382 0.74008C22.3102 0.908993 21.3217 1.2436 20.2961 1.75597C18.5898 2.60858 16.9876 3.84728 15.5983 5.31199C13.0421 8.00736 11.2065 11.4677 10.762 14.6891C9.99487 14.8387 9.17285 15.1226 8.32945 15.5441C6.85838 16.2785 5.47751 17.345 4.28075 18.6063C1.71614 21.3064 -0.00971918 24.8971 -0.000420372 28.0228C0.00794856 30.3023 0.9369 31.9069 2.4368 32.6606L5.56678 34.2347C4.06595 33.4803 3.137 31.8756 3.12956 29.5961C3.11933 26.4704 4.84612 22.8798 7.4098 20.1796C8.60749 18.9183 9.98743 17.8518 11.4594 17.1174C12.3019 16.6959 13.1248 16.412 13.8911 16.2624C14.3356 13.041 16.1721 9.58067 18.7283 6.8853C20.1176 5.42058 21.7188 4.18188 23.4261 3.32928C24.4508 2.81691 25.4393 2.4823 26.3673 2.31338C27.8709 2.0391 29.2155 2.19997 30.3025 2.74612L27.1726 1.17282Z" fill="#F0A72E"/>
</g>
<path fill-rule="evenodd" clip-rule="evenodd" d="M23.4258 3.32944C28.2668 0.911568 32.2895 2.44465 33.0073 6.71574C33.7791 6.0972 34.5937 5.56392 35.4436 5.13922C40.0577 2.83476 43.8125 4.68557 43.8274 9.27115C43.8423 13.8575 40.1116 19.4462 35.4975 21.7506L11.5131 33.729C6.89254 36.0366 3.14419 34.1826 3.12932 29.5962C3.11444 25.0098 6.83768 19.4252 11.4583 17.1176C12.3026 16.6961 13.1246 16.4122 13.8908 16.2625C14.5771 11.2901 18.5774 5.75052 23.4258 3.32944Z" fill="#FFCA00"/>
<path fill-rule="evenodd" clip-rule="evenodd" d="M62.7052 5.31441C61.7651 4.84225 60.6018 4.7031 59.3019 4.93958C58.4994 5.08597 57.6457 5.37554 56.7586 5.81712C55.9087 6.24182 55.0942 6.77591 54.3224 7.39445L57.4523 8.96775C58.2241 8.34921 59.0387 7.81512 59.8896 7.39123C60.7748 6.94804 61.6294 6.65928 62.4309 6.51288C63.7318 6.27641 64.8942 6.41556 65.8343 6.88771L62.7052 5.31441Z" fill="#D43E3E"/>
<path fill-rule="evenodd" clip-rule="evenodd" d="M51.6138 3.41976C50.5277 2.87361 49.1821 2.71274 47.6795 2.98622C46.7514 3.15513 45.7648 3.48974 44.741 4.00131C43.0403 4.8507 41.4427 6.08618 40.0563 7.54848C37.4982 10.2463 35.6589 13.713 35.2135 16.9376C34.4398 17.0905 33.6243 17.3712 32.7744 17.7959C31.3052 18.5294 29.9262 19.596 28.7294 20.8564C26.1648 23.5566 24.4352 27.1488 24.4454 30.2745C24.4529 32.5532 25.3837 34.1563 26.8827 34.9108L30.0126 36.4833C28.5127 35.7296 27.5819 34.1265 27.5745 31.8478C27.5643 28.7221 29.2948 25.1299 31.8585 22.4297C33.0561 21.1685 34.4352 20.1027 35.9034 19.3692C36.7552 18.9445 37.5698 18.6638 38.3434 18.5109C38.7889 15.2855 40.6282 11.8196 43.1863 9.12179C44.5727 7.65948 46.1703 6.424 47.871 5.57381C48.8939 5.06305 49.8814 4.72844 50.8085 4.55953C52.3121 4.28605 53.6567 4.44692 54.7438 4.99307L51.6138 3.41976Z" fill="#D43E3E"/>
<path fill-rule="evenodd" clip-rule="evenodd" d="M47.8706 5.57397C52.7116 3.1569 56.7352 4.69643 57.4521 8.96751C58.2239 8.34897 59.0385 7.81569 59.8893 7.39099C64.5034 5.08653 68.2573 6.93734 68.2722 11.5229C68.2871 16.1093 64.5573 21.6979 59.9433 24.0024L35.9579 35.9807C31.3448 38.2852 27.5899 36.4344 27.5751 31.848C27.5602 27.2616 31.2899 21.673 35.904 19.3685C36.7548 18.9446 37.5703 18.6639 38.3431 18.5103C39.0293 13.5386 43.0297 7.99184 47.8706 5.57397Z" fill="#FA7564"/>
<g filter="url(#filter0_d)">
<path d="M81.9397 26V12.92H84.5597L86.8797 19.32C87.0264 19.7333 87.1664 20.16 87.2997 20.6C87.4331 21.0267 87.5731 21.4533 87.7197 21.88H87.7997C87.9464 21.4533 88.0797 21.0267 88.1997 20.6C88.3331 20.16 88.4731 19.7333 88.6197 19.32L90.8797 12.92H93.5197V26H91.3797V20.02C91.3797 19.7133 91.3864 19.38 91.3997 19.02C91.4264 18.66 91.4531 18.3 91.4797 17.94C91.5064 17.5667 91.5397 17.2067 91.5797 16.86C91.6197 16.5 91.6531 16.1667 91.6797 15.86H91.5997L90.5397 18.9L88.3997 24.78H87.0197L84.8597 18.9L83.8197 15.86H83.7397C83.7664 16.1667 83.7931 16.5 83.8197 16.86C83.8597 17.2067 83.8931 17.5667 83.9197 17.94C83.9597 18.3 83.9864 18.66 83.9997 19.02C84.0264 19.38 84.0397 19.7133 84.0397 20.02V26H81.9397ZM98.6723 26.24C97.8056 26.24 97.1056 25.98 96.5723 25.46C96.0389 24.9267 95.7723 24.2267 95.7723 23.36C95.7723 22.84 95.8789 22.38 96.0923 21.98C96.3189 21.5667 96.6656 21.2133 97.1323 20.92C97.6123 20.6267 98.2123 20.38 98.9323 20.18C99.6656 19.98 100.539 19.8267 101.552 19.72C101.539 19.4667 101.499 19.2267 101.432 19C101.379 18.76 101.279 18.5533 101.132 18.38C100.999 18.1933 100.819 18.0533 100.592 17.96C100.366 17.8533 100.086 17.8 99.7523 17.8C99.2723 17.8 98.7989 17.8933 98.3323 18.08C97.8789 18.2667 97.4323 18.4933 96.9923 18.76L96.1523 17.22C96.6989 16.8733 97.3123 16.5733 97.9923 16.32C98.6723 16.0667 99.4056 15.94 100.192 15.94C101.419 15.94 102.332 16.3067 102.932 17.04C103.546 17.76 103.852 18.8067 103.852 20.18V26H101.952L101.792 24.92H101.712C101.272 25.2933 100.799 25.6067 100.292 25.86C99.7989 26.1133 99.2589 26.24 98.6723 26.24ZM99.4123 24.44C99.8123 24.44 100.172 24.3467 100.492 24.16C100.826 23.9733 101.179 23.7067 101.552 23.36V21.16C100.886 21.24 100.326 21.3467 99.8723 21.48C99.4189 21.6133 99.0523 21.7667 98.7723 21.94C98.4923 22.1 98.2923 22.2867 98.1723 22.5C98.0523 22.7133 97.9923 22.94 97.9923 23.18C97.9923 23.62 98.1256 23.94 98.3923 24.14C98.6589 24.34 98.9989 24.44 99.4123 24.44ZM106.255 26V16.18H108.155L108.315 17.92H108.395C108.742 17.28 109.162 16.7933 109.655 16.46C110.148 16.1133 110.655 15.94 111.175 15.94C111.642 15.94 112.015 16.0067 112.295 16.14L111.895 18.14C111.722 18.0867 111.562 18.0467 111.415 18.02C111.268 17.9933 111.088 17.98 110.875 17.98C110.488 17.98 110.082 18.1333 109.655 18.44C109.228 18.7333 108.862 19.2533 108.555 20V26H106.255ZM116.826 26.24C116.253 26.24 115.766 26.1533 115.366 25.98C114.979 25.8067 114.659 25.5667 114.406 25.26C114.166 24.94 113.986 24.5667 113.866 24.14C113.759 23.7 113.706 23.2133 113.706 22.68V18H112.306V16.28L113.826 16.18L114.106 13.5H116.026V16.18H118.526V18H116.026V22.68C116.026 23.8267 116.486 24.4 117.406 24.4C117.579 24.4 117.753 24.38 117.926 24.34C118.113 24.3 118.279 24.2467 118.426 24.18L118.826 25.88C118.559 25.9733 118.253 26.0533 117.906 26.12C117.573 26.2 117.213 26.24 116.826 26.24ZM122.193 26.24C121.327 26.24 120.627 25.98 120.093 25.46C119.56 24.9267 119.293 24.2267 119.293 23.36C119.293 22.84 119.4 22.38 119.613 21.98C119.84 21.5667 120.187 21.2133 120.653 20.92C121.133 20.6267 121.733 20.38 122.453 20.18C123.187 19.98 124.06 19.8267 125.073 19.72C125.06 19.4667 125.02 19.2267 124.953 19C124.9 18.76 124.8 18.5533 124.653 18.38C124.52 18.1933 124.34 18.0533 124.113 17.96C123.887 17.8533 123.607 17.8 123.273 17.8C122.793 17.8 122.32 17.8933 121.853 18.08C121.4 18.2667 120.953 18.4933 120.513 18.76L119.673 17.22C120.22 16.8733 120.833 16.5733 121.513 16.32C122.193 16.0667 122.927 15.94 123.713 15.94C124.94 15.94 125.853 16.3067 126.453 17.04C127.067 17.76 127.373 18.8067 127.373 20.18V26H125.473L125.313 24.92H125.233C124.793 25.2933 124.32 25.6067 123.813 25.86C123.32 26.1133 122.78 26.24 122.193 26.24ZM122.933 24.44C123.333 24.44 123.693 24.3467 124.013 24.16C124.347 23.9733 124.7 23.7067 125.073 23.36V21.16C124.407 21.24 123.847 21.3467 123.393 21.48C122.94 21.6133 122.573 21.7667 122.293 21.94C122.013 22.1 121.813 22.2867 121.693 22.5C121.573 22.7133 121.513 22.94 121.513 23.18C121.513 23.62 121.647 23.94 121.913 24.14C122.18 24.34 122.52 24.44 122.933 24.44ZM134.876 26.24C134.116 26.24 133.429 26.1333 132.816 25.92C132.216 25.6933 131.696 25.34 131.256 24.86C130.829 24.38 130.496 23.7667 130.256 23.02C130.029 22.26 129.916 21.34 129.916 20.26V12.92H132.236V20.44C132.236 21.1467 132.296 21.7467 132.416 22.24C132.549 22.72 132.729 23.1067 132.956 23.4C133.196 23.6933 133.476 23.9067 133.796 24.04C134.116 24.16 134.476 24.22 134.876 24.22C135.276 24.22 135.643 24.16 135.976 24.04C136.309 23.9067 136.596 23.6933 136.836 23.4C137.076 23.1067 137.263 22.72 137.396 22.24C137.529 21.7467 137.596 21.1467 137.596 20.44V12.92H139.816V20.26C139.816 21.34 139.703 22.26 139.476 23.02C139.249 23.7667 138.916 24.38 138.476 24.86C138.049 25.34 137.529 25.6933 136.916 25.92C136.316 26.1333 135.636 26.24 134.876 26.24ZM142.732 26V12.92H146.852C147.572 12.92 148.238 12.9867 148.852 13.12C149.478 13.2533 150.018 13.48 150.472 13.8C150.925 14.12 151.278 14.54 151.532 15.06C151.785 15.5667 151.912 16.2 151.912 16.96C151.912 17.68 151.785 18.3067 151.532 18.84C151.278 19.3733 150.925 19.82 150.472 20.18C150.032 20.5267 149.505 20.7867 148.892 20.96C148.292 21.12 147.638 21.2 146.932 21.2H145.052V26H142.732ZM145.052 19.34H146.752C148.672 19.34 149.632 18.5467 149.632 16.96C149.632 16.1333 149.378 15.5667 148.872 15.26C148.378 14.94 147.645 14.78 146.672 14.78H145.052V19.34Z" fill="white"/>
<path d="M81.9397 26H81.4397V26.5H81.9397V26ZM81.9397 12.92V12.42H81.4397V12.92H81.9397ZM84.5597 12.92L85.0298 12.7496L84.9103 12.42H84.5597V12.92ZM86.8797 19.32L87.3509 19.1528L87.3498 19.1496L86.8797 19.32ZM87.2997 20.6L86.8212 20.745L86.8225 20.7491L87.2997 20.6ZM87.7197 21.88L87.2469 22.0425L87.3629 22.38H87.7197V21.88ZM87.7997 21.88V22.38H88.1566L88.2726 22.0425L87.7997 21.88ZM88.1997 20.6L87.7211 20.455L87.7184 20.4646L88.1997 20.6ZM88.6197 19.32L89.0909 19.4872L89.0912 19.4865L88.6197 19.32ZM90.8797 12.92V12.42H90.526L90.4083 12.7535L90.8797 12.92ZM93.5197 12.92H94.0197V12.42H93.5197V12.92ZM93.5197 26V26.5H94.0197V26H93.5197ZM91.3797 26H90.8797V26.5H91.3797V26ZM91.3997 19.02L90.9011 18.9831L90.9004 18.9923L90.9001 19.0015L91.3997 19.02ZM91.4797 17.94L91.9784 17.9769L91.9785 17.9756L91.4797 17.94ZM91.5797 16.86L92.0764 16.9173L92.0767 16.9152L91.5797 16.86ZM91.6797 15.86L92.1778 15.9033L92.2251 15.36H91.6797V15.86ZM91.5997 15.86V15.36H91.2445L91.1276 15.6954L91.5997 15.86ZM90.5397 18.9L91.0096 19.071L91.0118 19.0646L90.5397 18.9ZM88.3997 24.78V25.28H88.7498L88.8696 24.951L88.3997 24.78ZM87.0197 24.78L86.5504 24.9524L86.6707 25.28H87.0197V24.78ZM84.8597 18.9L84.3865 19.0619L84.3904 19.0724L84.8597 18.9ZM83.8197 15.86L84.2928 15.6982L84.1771 15.36H83.8197V15.86ZM83.7397 15.86V15.36H83.1944L83.2416 15.9033L83.7397 15.86ZM83.8197 16.86L83.3211 16.8969L83.3218 16.9071L83.323 16.9173L83.8197 16.86ZM83.9197 17.94L83.421 17.9756L83.4217 17.9854L83.4228 17.9952L83.9197 17.94ZM83.9997 19.02L83.5001 19.0385L83.5004 19.0477L83.5011 19.0569L83.9997 19.02ZM84.0397 26V26.5H84.5397V26H84.0397ZM82.4397 26V12.92H81.4397V26H82.4397ZM81.9397 13.42H84.5597V12.42H81.9397V13.42ZM84.0897 13.0904L86.4097 19.4904L87.3498 19.1496L85.0298 12.7496L84.0897 13.0904ZM86.4085 19.4872C86.5525 19.8929 86.69 20.3121 86.8212 20.745L87.7782 20.455C87.6428 20.0079 87.5003 19.5738 87.3509 19.1528L86.4085 19.4872ZM86.8225 20.7491C86.9572 21.1803 87.0987 21.6115 87.2469 22.0425L88.1926 21.7175C88.0474 21.2952 87.9089 20.873 87.777 20.4509L86.8225 20.7491ZM87.7197 22.38H87.7997V21.38H87.7197V22.38ZM88.2726 22.0425C88.4223 21.6071 88.5584 21.1713 88.6811 20.7354L87.7184 20.4646C87.601 20.882 87.4705 21.2996 87.3269 21.7175L88.2726 22.0425ZM88.6782 20.745C88.8094 20.3121 88.947 19.8929 89.0909 19.4872L88.1485 19.1528C87.9991 19.5738 87.8567 20.0079 87.7212 20.455L88.6782 20.745ZM89.0912 19.4865L91.3512 13.0865L90.4083 12.7535L88.1483 19.1535L89.0912 19.4865ZM90.8797 13.42H93.5197V12.42H90.8797V13.42ZM93.0197 12.92V26H94.0197V12.92H93.0197ZM93.5197 25.5H91.3797V26.5H93.5197V25.5ZM91.8797 26V20.02H90.8797V26H91.8797ZM91.8797 20.02C91.8797 19.7205 91.8862 19.3934 91.8994 19.0385L90.9001 19.0015C90.8865 19.3666 90.8797 19.7062 90.8797 20.02H91.8797ZM91.8984 19.0569C91.9056 18.9592 91.9111 18.8847 91.9184 18.7869C91.9256 18.6892 91.9311 18.6147 91.9384 18.5169C91.9399 18.4964 91.9393 18.5037 91.9409 18.4832C91.9424 18.4626 91.9418 18.47 91.9434 18.4494C91.9449 18.4289 91.9443 18.4362 91.9459 18.4157C91.9474 18.3951 91.9468 18.4025 91.9484 18.3819C91.9499 18.3614 91.9493 18.3687 91.9509 18.3482C91.9524 18.3276 91.9518 18.335 91.9534 18.3144C91.9549 18.2939 91.9543 18.3012 91.9559 18.2807C91.9574 18.2601 91.9568 18.2675 91.9584 18.2469C91.9599 18.2264 91.9593 18.2337 91.9609 18.2132C91.9624 18.1926 91.9618 18.2 91.9634 18.1794C91.9649 18.1589 91.9643 18.1662 91.9659 18.1457C91.9674 18.1251 91.9668 18.1325 91.9684 18.1119C91.9699 18.0914 91.9693 18.0987 91.9709 18.0782C91.9724 18.0576 91.9718 18.065 91.9734 18.0444C91.9749 18.0239 91.9743 18.0312 91.9759 18.0107C91.9774 17.9901 91.9768 17.9975 91.9784 17.9769L90.9811 17.9031C90.9742 17.9964 90.968 18.0797 90.9611 18.1731C90.9538 18.2708 90.9483 18.3453 90.9411 18.4431C90.9396 18.4636 90.9401 18.4563 90.9386 18.4768C90.9371 18.4974 90.9376 18.49 90.9361 18.5106C90.9346 18.5311 90.9351 18.5238 90.9336 18.5443C90.9321 18.5649 90.9326 18.5575 90.9311 18.5781C90.9296 18.5986 90.9301 18.5913 90.9286 18.6118C90.9271 18.6324 90.9276 18.625 90.9261 18.6456C90.9246 18.6661 90.9251 18.6588 90.9236 18.6793C90.9221 18.6999 90.9226 18.6925 90.9211 18.7131C90.9196 18.7336 90.9201 18.7263 90.9186 18.7468C90.9171 18.7674 90.9176 18.76 90.9161 18.7806C90.9146 18.8011 90.9151 18.7938 90.9136 18.8143C90.9121 18.8349 90.9126 18.8275 90.9111 18.8481C90.9096 18.8686 90.9101 18.8613 90.9086 18.8818C90.9071 18.9024 90.9076 18.895 90.9061 18.9156C90.9046 18.9361 90.9051 18.9288 90.9036 18.9493C90.9021 18.9699 90.9026 18.9625 90.9011 18.9831L91.8984 19.0569ZM91.9785 17.9756C92.0046 17.609 92.0373 17.2563 92.0764 16.9173L91.083 16.8027C91.0421 17.1571 91.0081 17.5243 90.981 17.9044L91.9785 17.9756ZM92.0767 16.9152C92.117 16.5519 92.1508 16.2146 92.1778 15.9033L91.1816 15.8167C91.1553 16.1188 91.1224 16.4481 91.0828 16.8048L92.0767 16.9152ZM91.6797 15.36H91.5997V16.36H91.6797V15.36ZM91.1276 15.6954L90.0676 18.7354L91.0118 19.0646L92.0718 16.0246L91.1276 15.6954ZM90.0699 18.729L87.9299 24.609L88.8696 24.951L91.0096 19.071L90.0699 18.729ZM88.3997 24.28H87.0197V25.28H88.3997V24.28ZM87.4891 24.6076L85.3291 18.7276L84.3904 19.0724L86.5504 24.9524L87.4891 24.6076ZM85.3328 18.7382L84.2928 15.6982L83.3466 16.0218L84.3866 19.0618L85.3328 18.7382ZM83.8197 15.36H83.7397V16.36H83.8197V15.36ZM83.2416 15.9033C83.2681 16.2075 83.2946 16.5387 83.3211 16.8969L84.3184 16.8231C84.2916 16.4613 84.2647 16.1258 84.2378 15.8167L83.2416 15.9033ZM83.323 16.9173C83.3621 17.2563 83.3948 17.609 83.421 17.9756L84.4185 17.9044C84.3913 17.5243 84.3573 17.1571 84.3164 16.8027L83.323 16.9173ZM83.4228 17.9952C83.4614 18.3431 83.4872 18.6908 83.5001 19.0385L84.4994 19.0015C84.4856 18.6292 84.458 18.2569 84.4167 17.8848L83.4228 17.9952ZM83.5011 19.0569C83.527 19.4067 83.5397 19.7276 83.5397 20.02H84.5397C84.5397 19.6991 84.5258 19.3533 84.4984 18.9831L83.5011 19.0569ZM83.5397 20.02V26H84.5397V20.02H83.5397ZM84.0397 25.5H81.9397V26.5H84.0397V25.5ZM96.5723 25.46L96.2187 25.8136L96.2232 25.818L96.5723 25.46ZM96.0923 21.98L95.6538 21.7396L95.6511 21.7447L96.0923 21.98ZM97.1323 20.92L96.8715 20.4933L96.8662 20.4967L97.1323 20.92ZM98.9323 20.18L98.8007 19.6976L98.7985 19.6982L98.9323 20.18ZM101.552 19.72L101.605 20.2173L102.077 20.1676L102.052 19.6937L101.552 19.72ZM101.432 19L100.944 19.1085L100.948 19.1249L100.953 19.1411L101.432 19ZM101.132 18.38L100.725 18.6706L100.737 18.6873L100.751 18.703L101.132 18.38ZM100.592 17.96L100.379 18.4124L100.391 18.4177L100.402 18.4223L100.592 17.96ZM98.3323 18.08L98.1466 17.6157L98.1419 17.6177L98.3323 18.08ZM96.9923 18.76L96.5533 18.9994L96.8039 19.4588L97.2514 19.1876L96.9923 18.76ZM96.1523 17.22L95.8845 16.7977L95.4892 17.0485L95.7133 17.4594L96.1523 17.22ZM97.9923 16.32L97.8177 15.8515L97.9923 16.32ZM102.932 17.04L102.545 17.3567L102.552 17.3642L102.932 17.04ZM103.852 26V26.5H104.352V26H103.852ZM101.952 26L101.458 26.0733L101.521 26.5H101.952V26ZM101.792 24.92L102.287 24.8467L102.224 24.42H101.792V24.92ZM101.712 24.92V24.42H101.529L101.389 24.5387L101.712 24.92ZM100.292 25.86L100.069 25.4128L100.064 25.4152L100.292 25.86ZM100.492 24.16L100.248 23.7237L100.24 23.7281L100.492 24.16ZM101.552 23.36L101.892 23.7264L102.052 23.578V23.36H101.552ZM101.552 21.16H102.052V20.5964L101.493 20.6636L101.552 21.16ZM99.8723 21.48L99.7312 21.0003L99.8723 21.48ZM98.7723 21.94L99.0203 22.3741L99.028 22.3698L99.0355 22.3651L98.7723 21.94ZM98.3923 24.14L98.0923 24.54V24.54L98.3923 24.14ZM98.6723 25.74C97.9131 25.74 97.346 25.5161 96.9213 25.102L96.2232 25.818C96.8652 26.4439 97.6981 26.74 98.6723 26.74V25.74ZM96.9258 25.1064C96.5004 24.681 96.2723 24.1155 96.2723 23.36H95.2723C95.2723 24.3378 95.5775 25.1723 96.2187 25.8136L96.9258 25.1064ZM96.2723 23.36C96.2723 22.9099 96.3641 22.5329 96.5334 22.2153L95.6511 21.7447C95.3938 22.2271 95.2723 22.7701 95.2723 23.36H96.2723ZM96.5307 22.2204C96.71 21.8935 96.9915 21.5991 97.3984 21.3433L96.8662 20.4967C96.3397 20.8276 95.9279 21.2399 95.6539 21.7396L96.5307 22.2204ZM97.393 21.3466C97.8229 21.0839 98.3771 20.8532 99.0661 20.6618L98.7985 19.6982C98.0475 19.9068 97.4016 20.1694 96.8715 20.4934L97.393 21.3466ZM99.0638 20.6624C99.7642 20.4714 100.61 20.322 101.605 20.2173L101.5 19.2227C100.468 19.3313 99.567 19.4886 98.8007 19.6976L99.0638 20.6624ZM102.052 19.6937C102.036 19.4043 101.99 19.1256 101.912 18.8589L100.953 19.1411C101.007 19.3277 101.042 19.529 101.053 19.7463L102.052 19.6937ZM101.92 18.8915C101.851 18.5792 101.717 18.2972 101.514 18.057L100.751 18.703C100.841 18.8094 100.907 18.9408 100.944 19.1085L101.92 18.8915ZM101.539 18.0894C101.347 17.821 101.09 17.6242 100.783 17.4977L100.402 18.4223C100.548 18.4825 100.65 18.5657 100.725 18.6706L101.539 18.0894ZM100.805 17.5076C100.494 17.361 100.136 17.3 99.7523 17.3V18.3C100.035 18.3 100.238 18.3456 100.379 18.4124L100.805 17.5076ZM99.7523 17.3C99.2057 17.3 98.6695 17.4066 98.1466 17.6158L98.518 18.5442C98.9284 18.3801 99.3389 18.3 99.7523 18.3V17.3ZM98.1419 17.6177C97.6636 17.8146 97.194 18.0531 96.7331 18.3324L97.2514 19.1876C97.6705 18.9336 98.0942 18.7187 98.5226 18.5423L98.1419 17.6177ZM97.4312 18.5206L96.5912 16.9806L95.7133 17.4594L96.5533 18.9994L97.4312 18.5206ZM96.42 17.6423C96.934 17.3163 97.5156 17.0312 98.1668 16.7885L97.8177 15.8515C97.109 16.1155 96.4638 16.4304 95.8845 16.7977L96.42 17.6423ZM98.1668 16.7885C98.7865 16.5577 99.4602 16.44 100.192 16.44V15.44C99.351 15.44 98.5581 15.5756 97.8177 15.8515L98.1668 16.7885ZM100.192 16.44C101.317 16.44 102.067 16.7718 102.545 17.3566L103.319 16.7234C102.598 15.8415 101.521 15.44 100.192 15.44V16.44ZM102.552 17.3642C103.06 17.9605 103.352 18.873 103.352 20.18H104.352C104.352 18.7404 104.032 17.5595 103.313 16.7158L102.552 17.3642ZM103.352 20.18V26H104.352V20.18H103.352ZM103.852 25.5H101.952V26.5H103.852V25.5ZM102.447 25.9267L102.287 24.8467L101.298 24.9933L101.458 26.0733L102.447 25.9267ZM101.792 24.42H101.712V25.42H101.792V24.42ZM101.389 24.5387C100.979 24.8867 100.539 25.1777 100.069 25.4128L100.516 26.3072C101.059 26.0356 101.566 25.7 102.036 25.3013L101.389 24.5387ZM100.064 25.4152C99.6453 25.6302 99.1842 25.74 98.6723 25.74V26.74C99.3337 26.74 99.9526 26.5965 100.521 26.3048L100.064 25.4152ZM99.4123 24.94C99.8935 24.94 100.342 24.8267 100.744 24.5919L100.24 23.7281C100.003 23.8666 99.731 23.94 99.4123 23.94V24.94ZM100.737 24.5963C101.114 24.385 101.499 24.0917 101.892 23.7264L101.212 22.9936C100.859 23.3216 100.537 23.5617 100.248 23.7237L100.737 24.5963ZM102.052 23.36V21.16H101.052V23.36H102.052ZM101.493 20.6636C100.809 20.7456 100.22 20.8566 99.7312 21.0003L100.013 21.9597C100.432 21.8367 100.962 21.7344 101.612 21.6564L101.493 20.6636ZM99.7312 21.0003C99.2518 21.1413 98.8397 21.3102 98.5091 21.5149L99.0355 22.3651C99.2648 22.2231 99.586 22.0854 100.013 21.9597L99.7312 21.0003ZM98.5242 21.5059C98.19 21.6969 97.9128 21.9415 97.7365 22.2549L98.6081 22.7451C98.6718 22.6319 98.7946 22.5031 99.0203 22.3741L98.5242 21.5059ZM97.7365 22.2549C97.5753 22.5415 97.4923 22.8524 97.4923 23.18H98.4923C98.4923 23.0276 98.5293 22.8852 98.6081 22.7451L97.7365 22.2549ZM97.4923 23.18C97.4923 23.7226 97.6615 24.2169 98.0923 24.54L98.6923 23.74C98.5897 23.6631 98.4923 23.5174 98.4923 23.18H97.4923ZM98.0923 24.54C98.4645 24.8192 98.9172 24.94 99.4123 24.94V23.94C99.0807 23.94 98.8534 23.8608 98.6923 23.74L98.0923 24.54ZM106.255 26H105.755V26.5H106.255V26ZM106.255 16.18V15.68H105.755V16.18H106.255ZM108.155 16.18L108.653 16.1342L108.611 15.68H108.155V16.18ZM108.315 17.92L107.817 17.9658L107.859 18.42H108.315V17.92ZM108.395 17.92V18.42H108.693L108.835 18.1581L108.395 17.92ZM109.655 16.46L109.935 16.8744L109.942 16.8691L109.655 16.46ZM112.295 16.14L112.785 16.2381L112.862 15.8561L112.51 15.6886L112.295 16.14ZM111.895 18.14L111.748 18.6179L112.277 18.7806L112.385 18.2381L111.895 18.14ZM111.415 18.02L111.504 17.5281L111.415 18.02ZM109.655 18.44L109.938 18.8521L109.947 18.846L109.655 18.44ZM108.555 20L108.092 19.81L108.055 19.9013V20H108.555ZM108.555 26V26.5H109.055V26H108.555ZM106.755 26V16.18H105.755V26H106.755ZM106.255 16.68H108.155V15.68H106.255V16.68ZM107.657 16.2258L107.817 17.9658L108.813 17.8742L108.653 16.1342L107.657 16.2258ZM108.315 18.42H108.395V17.42H108.315V18.42ZM108.835 18.1581C109.151 17.5733 109.521 17.1537 109.935 16.8743L109.375 16.0457C108.802 16.433 108.332 16.9867 107.955 17.6819L108.835 18.1581ZM109.942 16.8691C110.365 16.5719 110.774 16.44 111.175 16.44V15.44C110.536 15.44 109.931 15.6548 109.368 16.0509L109.942 16.8691ZM111.175 16.44C111.601 16.44 111.892 16.5021 112.08 16.5914L112.51 15.6886C112.138 15.5112 111.682 15.44 111.175 15.44V16.44ZM111.805 16.0419L111.405 18.0419L112.385 18.2381L112.785 16.2381L111.805 16.0419ZM112.042 17.6621C111.854 17.6042 111.674 17.5589 111.504 17.5281L111.326 18.5119C111.449 18.5344 111.59 18.5692 111.748 18.6179L112.042 17.6621ZM111.504 17.5281C111.319 17.4943 111.107 17.48 110.875 17.48V18.48C111.07 18.48 111.218 18.4924 111.326 18.5119L111.504 17.5281ZM110.875 17.48C110.352 17.48 109.845 17.6877 109.363 18.034L109.947 18.846C110.318 18.5789 110.625 18.48 110.875 18.48V17.48ZM109.372 18.028C108.832 18.3991 108.417 19.0198 108.092 19.81L109.017 20.19C109.306 19.4868 109.625 19.0675 109.938 18.852L109.372 18.028ZM108.055 20V26H109.055V20H108.055ZM108.555 25.5H106.255V26.5H108.555V25.5ZM115.366 25.98L115.162 26.4363L115.167 26.4388L115.366 25.98ZM114.406 25.26L114.006 25.56L114.013 25.5694L114.021 25.5784L114.406 25.26ZM113.866 24.14L113.38 24.2578L113.382 24.2666L113.385 24.2754L113.866 24.14ZM113.706 18H114.206V17.5H113.706V18ZM112.306 18H111.806V18.5H112.306V18ZM112.306 16.28L112.273 15.7811L111.806 15.8118V16.28H112.306ZM113.826 16.18L113.859 16.6789L114.28 16.6512L114.323 16.232L113.826 16.18ZM114.106 13.5V13H113.656L113.609 13.448L114.106 13.5ZM116.026 13.5H116.526V13H116.026V13.5ZM116.026 16.18H115.526V16.68H116.026V16.18ZM118.526 16.18H119.026V15.68H118.526V16.18ZM118.526 18V18.5H119.026V18H118.526ZM116.026 18V17.5H115.526V18H116.026ZM117.926 24.34L117.821 23.851L117.814 23.8528L117.926 24.34ZM118.426 24.18L118.913 24.0655L118.773 23.4729L118.219 23.7248L118.426 24.18ZM118.826 25.88L118.991 26.3519L119.416 26.2033L119.313 25.7655L118.826 25.88ZM117.906 26.12L117.812 25.629L117.801 25.6311L117.789 25.6338L117.906 26.12ZM116.826 25.74C116.301 25.74 115.886 25.6602 115.565 25.5212L115.167 26.4388C115.646 26.6464 116.205 26.74 116.826 26.74V25.74ZM115.571 25.5237C115.249 25.3797 114.993 25.1852 114.792 24.9416L114.021 25.5784C114.326 25.9482 114.71 26.2336 115.162 26.4363L115.571 25.5237ZM114.806 24.96C114.607 24.6944 114.453 24.3783 114.347 24.0046L113.385 24.2754C113.52 24.7551 113.725 25.1856 114.006 25.56L114.806 24.96ZM114.352 24.0222C114.256 23.6269 114.206 23.1805 114.206 22.68H113.206C113.206 23.2462 113.263 23.7731 113.38 24.2578L114.352 24.0222ZM114.206 22.68V18H113.206V22.68H114.206ZM113.706 17.5H112.306V18.5H113.706V17.5ZM112.806 18V16.28H111.806V18H112.806ZM112.339 16.7789L113.859 16.6789L113.793 15.6811L112.273 15.7811L112.339 16.7789ZM114.323 16.232L114.603 13.552L113.609 13.448L113.329 16.128L114.323 16.232ZM114.106 14H116.026V13H114.106V14ZM115.526 13.5V16.18H116.526V13.5H115.526ZM116.026 16.68H118.526V15.68H116.026V16.68ZM118.026 16.18V18H119.026V16.18H118.026ZM118.526 17.5H116.026V18.5H118.526V17.5ZM115.526 18V22.68H116.526V18H115.526ZM115.526 22.68C115.526 23.307 115.65 23.8698 115.981 24.2829C116.329 24.717 116.836 24.9 117.406 24.9V23.9C117.056 23.9 116.873 23.7963 116.761 23.6571C116.633 23.4968 116.526 23.1997 116.526 22.68H115.526ZM117.406 24.9C117.618 24.9 117.829 24.8755 118.039 24.8272L117.814 23.8528C117.676 23.8845 117.541 23.9 117.406 23.9V24.9ZM118.031 24.8289C118.246 24.7827 118.448 24.7192 118.633 24.6352L118.219 23.7248C118.111 23.7742 117.979 23.8173 117.821 23.8511L118.031 24.8289ZM117.939 24.2945L118.339 25.9945L119.313 25.7655L118.913 24.0655L117.939 24.2945ZM118.661 25.4081C118.422 25.4916 118.14 25.5659 117.812 25.629L118.001 26.611C118.366 26.5408 118.697 26.455 118.991 26.3519L118.661 25.4081ZM117.789 25.6338C117.499 25.7036 117.178 25.74 116.826 25.74V26.74C117.247 26.74 117.647 26.6964 118.023 26.6062L117.789 25.6338ZM120.093 25.46L119.74 25.8136L119.744 25.818L120.093 25.46ZM119.613 21.98L119.175 21.7396L119.172 21.7447L119.613 21.98ZM120.653 20.92L120.392 20.4933L120.387 20.4967L120.653 20.92ZM122.453 20.18L122.322 19.6976L122.319 19.6982L122.453 20.18ZM125.073 19.72L125.126 20.2173L125.597 20.1676L125.573 19.6937L125.073 19.72ZM124.953 19L124.465 19.1085L124.469 19.1249L124.474 19.1411L124.953 19ZM124.653 18.38L124.246 18.6706L124.258 18.6873L124.272 18.703L124.653 18.38ZM124.113 17.96L123.9 18.4124L123.911 18.4177L123.923 18.4223L124.113 17.96ZM121.853 18.08L121.667 17.6157L121.663 17.6177L121.853 18.08ZM120.513 18.76L120.074 18.9994L120.325 19.4588L120.772 19.1876L120.513 18.76ZM119.673 17.22L119.405 16.7977L119.01 17.0485L119.234 17.4594L119.673 17.22ZM121.513 16.32L121.339 15.8515L121.513 16.32ZM126.453 17.04L126.066 17.3567L126.073 17.3642L126.453 17.04ZM127.373 26V26.5H127.873V26H127.373ZM125.473 26L124.979 26.0733L125.042 26.5H125.473V26ZM125.313 24.92L125.808 24.8467L125.745 24.42H125.313V24.92ZM125.233 24.92V24.42H125.05L124.91 24.5387L125.233 24.92ZM123.813 25.86L123.59 25.4128L123.585 25.4152L123.813 25.86ZM124.013 24.16L123.769 23.7237L123.761 23.7281L124.013 24.16ZM125.073 23.36L125.413 23.7264L125.573 23.578V23.36H125.073ZM125.073 21.16H125.573V20.5964L125.014 20.6636L125.073 21.16ZM123.393 21.48L123.252 21.0003L123.393 21.48ZM122.293 21.94L122.541 22.3741L122.549 22.3698L122.556 22.3651L122.293 21.94ZM121.913 24.14L121.613 24.54V24.54L121.913 24.14ZM122.193 25.74C121.434 25.74 120.867 25.5161 120.442 25.102L119.744 25.818C120.386 26.4439 121.219 26.74 122.193 26.74V25.74ZM120.447 25.1064C120.021 24.681 119.793 24.1155 119.793 23.36H118.793C118.793 24.3378 119.098 25.1723 119.74 25.8136L120.447 25.1064ZM119.793 23.36C119.793 22.9099 119.885 22.5329 120.054 22.2153L119.172 21.7447C118.915 22.2271 118.793 22.7701 118.793 23.36H119.793ZM120.052 22.2204C120.231 21.8935 120.512 21.5991 120.919 21.3433L120.387 20.4967C119.861 20.8276 119.449 21.2399 119.175 21.7396L120.052 22.2204ZM120.914 21.3466C121.344 21.0839 121.898 20.8532 122.587 20.6618L122.319 19.6982C121.568 19.9068 120.923 20.1694 120.392 20.4934L120.914 21.3466ZM122.585 20.6624C123.285 20.4714 124.131 20.322 125.126 20.2173L125.021 19.2227C123.989 19.3313 123.088 19.4886 122.322 19.6976L122.585 20.6624ZM125.573 19.6937C125.557 19.4043 125.511 19.1256 125.433 18.8589L124.474 19.1411C124.528 19.3277 124.562 19.529 124.574 19.7463L125.573 19.6937ZM125.441 18.8915C125.372 18.5792 125.238 18.2972 125.035 18.057L124.272 18.703C124.362 18.8094 124.428 18.9408 124.465 19.1085L125.441 18.8915ZM125.06 18.0894C124.868 17.821 124.611 17.6242 124.304 17.4977L123.923 18.4223C124.069 18.4825 124.171 18.5657 124.246 18.6706L125.06 18.0894ZM124.326 17.5076C124.015 17.361 123.657 17.3 123.273 17.3V18.3C123.556 18.3 123.758 18.3456 123.9 18.4124L124.326 17.5076ZM123.273 17.3C122.727 17.3 122.19 17.4066 121.668 17.6158L122.039 18.5442C122.449 18.3801 122.86 18.3 123.273 18.3V17.3ZM121.663 17.6177C121.185 17.8146 120.715 18.0531 120.254 18.3324L120.772 19.1876C121.191 18.9336 121.615 18.7187 122.044 18.5423L121.663 17.6177ZM120.952 18.5206L120.112 16.9806L119.234 17.4594L120.074 18.9994L120.952 18.5206ZM119.941 17.6423C120.455 17.3163 121.036 17.0312 121.688 16.7885L121.339 15.8515C120.63 16.1155 119.985 16.4304 119.405 16.7977L119.941 17.6423ZM121.688 16.7885C122.307 16.5577 122.981 16.44 123.713 16.44V15.44C122.872 15.44 122.079 15.5756 121.339 15.8515L121.688 16.7885ZM123.713 16.44C124.838 16.44 125.588 16.7718 126.066 17.3566L126.84 16.7234C126.119 15.8415 125.042 15.44 123.713 15.44V16.44ZM126.073 17.3642C126.581 17.9605 126.873 18.873 126.873 20.18H127.873C127.873 18.7404 127.553 17.5595 126.834 16.7158L126.073 17.3642ZM126.873 20.18V26H127.873V20.18H126.873ZM127.373 25.5H125.473V26.5H127.373V25.5ZM125.968 25.9267L125.808 24.8467L124.819 24.9933L124.979 26.0733L125.968 25.9267ZM125.313 24.42H125.233V25.42H125.313V24.42ZM124.91 24.5387C124.5 24.8867 124.06 25.1777 123.59 25.4128L124.037 26.3072C124.58 26.0356 125.087 25.7 125.557 25.3013L124.91 24.5387ZM123.585 25.4152C123.166 25.6302 122.705 25.74 122.193 25.74V26.74C122.855 26.74 123.474 26.5965 124.042 26.3048L123.585 25.4152ZM122.933 24.94C123.414 24.94 123.863 24.8267 124.265 24.5919L123.761 23.7281C123.524 23.8666 123.252 23.94 122.933 23.94V24.94ZM124.258 24.5963C124.635 24.385 125.02 24.0917 125.413 23.7264L124.733 22.9936C124.38 23.3216 124.058 23.5617 123.769 23.7237L124.258 24.5963ZM125.573 23.36V21.16H124.573V23.36H125.573ZM125.014 20.6636C124.33 20.7456 123.741 20.8566 123.252 21.0003L123.534 21.9597C123.952 21.8367 124.483 21.7344 125.133 21.6564L125.014 20.6636ZM123.252 21.0003C122.773 21.1413 122.361 21.3102 122.03 21.5149L122.556 22.3651C122.786 22.2231 123.107 22.0854 123.534 21.9597L123.252 21.0003ZM122.045 21.5059C121.711 21.6969 121.434 21.9415 121.257 22.2549L122.129 22.7451C122.193 22.6319 122.316 22.5031 122.541 22.3741L122.045 21.5059ZM121.257 22.2549C121.096 22.5415 121.013 22.8524 121.013 23.18H122.013C122.013 23.0276 122.05 22.8852 122.129 22.7451L121.257 22.2549ZM121.013 23.18C121.013 23.7226 121.182 24.2169 121.613 24.54L122.213 23.74C122.111 23.6631 122.013 23.5174 122.013 23.18H121.013ZM121.613 24.54C121.985 24.8192 122.438 24.94 122.933 24.94V23.94C122.602 23.94 122.374 23.8608 122.213 23.74L121.613 24.54ZM132.816 25.92L132.639 26.3879L132.652 26.3922L132.816 25.92ZM131.256 24.86L130.882 25.1922L130.887 25.1979L131.256 24.86ZM130.256 23.02L129.777 23.1629L129.78 23.173L130.256 23.02ZM129.916 12.92V12.42H129.416V12.92H129.916ZM132.236 12.92H132.736V12.42H132.236V12.92ZM132.416 22.24L131.93 22.3582L131.932 22.366L131.934 22.3738L132.416 22.24ZM132.956 23.4L132.56 23.7058L132.569 23.7166L132.956 23.4ZM133.796 24.04L133.604 24.5015L133.612 24.505L133.62 24.5082L133.796 24.04ZM135.976 24.04L136.145 24.5104L136.153 24.5075L136.162 24.5042L135.976 24.04ZM136.836 23.4L136.449 23.0834L136.836 23.4ZM137.396 22.24L137.878 22.3738L137.879 22.3705L137.396 22.24ZM137.596 12.92V12.42H137.096V12.92H137.596ZM139.816 12.92H140.316V12.42H139.816V12.92ZM139.476 23.02L139.954 23.1652L139.955 23.1629L139.476 23.02ZM138.476 24.86L138.107 24.5221L138.102 24.5278L138.476 24.86ZM136.916 25.92L137.083 26.3911L137.089 26.389L136.916 25.92ZM134.876 25.74C134.163 25.74 133.533 25.6399 132.98 25.4478L132.652 26.3922C133.326 26.6268 134.069 26.74 134.876 26.74V25.74ZM132.993 25.4523C132.467 25.2537 132.012 24.9453 131.624 24.5221L130.887 25.1979C131.379 25.7347 131.965 26.133 132.639 26.3877L132.993 25.4523ZM131.63 24.5278C131.258 24.1099 130.955 23.5618 130.732 22.867L129.78 23.173C130.037 23.9716 130.4 24.6501 130.882 25.1922L131.63 24.5278ZM130.735 22.8771C130.526 22.1768 130.416 21.3078 130.416 20.26H129.416C129.416 21.3722 129.532 22.3432 129.777 23.1629L130.735 22.8771ZM130.416 20.26V12.92H129.416V20.26H130.416ZM129.916 13.42H132.236V12.42H129.916V13.42ZM131.736 12.92V20.44H132.736V12.92H131.736ZM131.736 20.44C131.736 21.1722 131.798 21.8144 131.93 22.3582L132.902 22.1218C132.794 21.6789 132.736 21.1211 132.736 20.44H131.736ZM131.934 22.3738C132.079 22.896 132.283 23.3469 132.56 23.7057L133.352 23.0943C133.176 22.8664 133.019 22.544 132.898 22.1062L131.934 22.3738ZM132.569 23.7166C132.856 24.0675 133.201 24.3337 133.604 24.5015L133.988 23.5785C133.751 23.4796 133.536 23.3192 133.343 23.0834L132.569 23.7166ZM133.62 24.5082C134.005 24.6525 134.426 24.72 134.876 24.72V23.72C134.526 23.72 134.227 23.6675 133.971 23.5718L133.62 24.5082ZM134.876 24.72C135.326 24.72 135.751 24.6524 136.145 24.5104L135.807 23.5696C135.534 23.6676 135.226 23.72 134.876 23.72V24.72ZM136.162 24.5042C136.578 24.3377 136.932 24.0716 137.223 23.7166L136.449 23.0834C136.259 23.3151 136.041 23.4756 135.79 23.5758L136.162 24.5042ZM137.223 23.7166C137.518 23.3555 137.731 22.9006 137.878 22.3738L136.914 22.1062C136.794 22.5394 136.634 22.8578 136.449 23.0834L137.223 23.7166ZM137.879 22.3705C138.027 21.8219 138.096 21.1752 138.096 20.44H137.096C137.096 21.1181 137.032 21.6715 136.913 22.1095L137.879 22.3705ZM138.096 20.44V12.92H137.096V20.44H138.096ZM137.596 13.42H139.816V12.42H137.596V13.42ZM139.316 12.92V20.26H140.316V12.92H139.316ZM139.316 20.26C139.316 21.3078 139.206 22.1768 138.997 22.8771L139.955 23.1629C140.2 22.3432 140.316 21.3722 140.316 20.26H139.316ZM138.997 22.8748C138.788 23.5638 138.488 24.1072 138.107 24.5221L138.844 25.1979C139.344 24.6528 139.71 23.9695 139.954 23.1652L138.997 22.8748ZM138.102 24.5278C137.731 24.9453 137.28 25.2523 136.743 25.451L137.089 26.389C137.778 26.1344 138.367 25.7347 138.85 25.1922L138.102 24.5278ZM136.748 25.4489C136.211 25.6398 135.59 25.74 134.876 25.74V26.74C135.682 26.74 136.42 26.6269 137.083 26.3911L136.748 25.4489ZM142.732 26H142.232V26.5H142.732V26ZM142.732 12.92V12.42H142.232V12.92H142.732ZM148.852 13.12L148.745 13.6086L148.748 13.6091L148.852 13.12ZM150.472 13.8L150.76 13.3915L150.472 13.8ZM151.532 15.06L151.082 15.279L151.084 15.2836L151.532 15.06ZM151.532 18.84L151.08 18.6255L151.532 18.84ZM150.472 20.18L150.781 20.5727L150.783 20.5716L150.472 20.18ZM148.892 20.96L149.02 21.4432L149.028 21.4412L148.892 20.96ZM145.052 21.2V20.7H144.552V21.2H145.052ZM145.052 26V26.5H145.552V26H145.052ZM145.052 19.34H144.552V19.84H145.052V19.34ZM148.872 15.26L148.599 15.6795L148.606 15.6837L148.613 15.6877L148.872 15.26ZM145.052 14.78V14.28H144.552V14.78H145.052ZM143.232 26V12.92H142.232V26H143.232ZM142.732 13.42H146.852V12.42H142.732V13.42ZM146.852 13.42C147.541 13.42 148.172 13.4839 148.745 13.6086L148.958 12.6314C148.305 12.4895 147.602 12.42 146.852 12.42V13.42ZM148.748 13.6091C149.318 13.7305 149.793 13.9331 150.183 14.2085L150.76 13.3915C150.243 13.0269 149.638 12.7762 148.956 12.6309L148.748 13.6091ZM150.183 14.2085C150.565 14.4778 150.864 14.8314 151.082 15.279L151.981 14.841C151.692 14.2486 151.285 13.7622 150.76 13.3915L150.183 14.2085ZM151.084 15.2836C151.293 15.7013 151.412 16.2523 151.412 16.96H152.412C152.412 16.1477 152.277 15.432 151.979 14.8364L151.084 15.2836ZM151.412 16.96C151.412 17.6218 151.295 18.1722 151.08 18.6255L151.983 19.0545C152.275 18.4411 152.412 17.7382 152.412 16.96H151.412ZM151.08 18.6255C150.859 19.0913 150.553 19.4769 150.161 19.7884L150.783 20.5716C151.297 20.1631 151.698 19.6554 151.983 19.0545L151.08 18.6255ZM150.162 19.7873C149.78 20.0882 149.315 20.3209 148.756 20.4788L149.028 21.4412C149.695 21.2524 150.283 20.9652 150.781 20.5727L150.162 19.7873ZM148.763 20.4769C148.21 20.6243 147.601 20.7 146.932 20.7V21.7C147.676 21.7 148.373 21.6157 149.02 21.4431L148.763 20.4769ZM146.932 20.7H145.052V21.7H146.932V20.7ZM144.552 21.2V26H145.552V21.2H144.552ZM145.052 25.5H142.732V26.5H145.052V25.5ZM145.052 19.84H146.752V18.84H145.052V19.84ZM146.752 19.84C147.768 19.84 148.623 19.632 149.23 19.1304C149.855 18.6138 150.132 17.8582 150.132 16.96H149.132C149.132 17.6485 148.928 18.0829 148.593 18.3596C148.24 18.6514 147.655 18.84 146.752 18.84V19.84ZM150.132 16.96C150.132 16.0352 149.843 15.2632 149.13 14.8322L148.613 15.6877C148.914 15.8701 149.132 16.2315 149.132 16.96H150.132ZM149.144 14.8405C148.532 14.4438 147.685 14.28 146.672 14.28V15.28C147.605 15.28 148.224 15.4362 148.599 15.6795L149.144 14.8405ZM146.672 14.28H145.052V15.28H146.672V14.28ZM144.552 14.78V19.34H145.552V14.78H144.552Z" fill="black"/>
</g>
<defs>
<filter id="filter0_d" x="77.4397" y="12.42" width="78.9719" height="22.32" filterUnits="userSpaceOnUse" color-interpolation-filters="sRGB">
<feFlood flood-opacity="0" result="BackgroundImageFix"/>
<feColorMatrix in="SourceAlpha" type="matrix" values="0 0 0 0 0 0 0 0 0 0 0 0 0 0 0 0 0 0 127 0"/>
<feOffset dy="4"/>
<feGaussianBlur stdDeviation="2"/>
<feColorMatrix type="matrix" values="0 0 0 0 0 0 0 0 0 0 0 0 0 0 0 0 0 0 0.25 0"/>
<feBlend mode="normal" in2="BackgroundImageFix" result="effect1_dropShadow"/>
<feBlend mode="normal" in="SourceGraphic" in2="effect1_dropShadow" result="shape"/>
</filter>
</defs>
</svg>
