<svg width="143" height="40" viewBox="0 0 143 40" fill="none" xmlns="http://www.w3.org/2000/svg">
<rect width="143" height="40" rx="20" fill="white"/>
<path d="M48.8891 25.18C48.2291 25.18 47.5891 25.055 46.9691 24.805C46.3591 24.555 45.8191 24.2 45.3491 23.74L46.3691 22.555C46.7191 22.885 47.1191 23.155 47.5691 23.365C48.0191 23.565 48.4691 23.665 48.9191 23.665C49.4791 23.665 49.9041 23.55 50.1941 23.32C50.4841 23.09 50.6291 22.785 50.6291 22.405C50.6291 22.205 50.5891 22.035 50.5091 21.895C50.4391 21.755 50.3341 21.635 50.1941 21.535C50.0641 21.425 49.9041 21.325 49.7141 21.235C49.5341 21.145 49.3341 21.055 49.1141 20.965L47.7641 20.38C47.5241 20.28 47.2841 20.155 47.0441 20.005C46.8141 19.855 46.6041 19.675 46.4141 19.465C46.2241 19.255 46.0691 19.01 45.9491 18.73C45.8391 18.45 45.7841 18.13 45.7841 17.77C45.7841 17.38 45.8641 17.02 46.0241 16.69C46.1941 16.35 46.4241 16.055 46.7141 15.805C47.0041 15.555 47.3491 15.36 47.7491 15.22C48.1591 15.08 48.6041 15.01 49.0841 15.01C49.6541 15.01 50.2041 15.125 50.7341 15.355C51.2641 15.575 51.7191 15.875 52.0991 16.255L51.2141 17.365C50.8941 17.105 50.5641 16.9 50.2241 16.75C49.8841 16.6 49.5041 16.525 49.0841 16.525C48.6141 16.525 48.2391 16.63 47.9591 16.84C47.6791 17.04 47.5391 17.32 47.5391 17.68C47.5391 17.87 47.5791 18.035 47.6591 18.175C47.7491 18.305 47.8641 18.425 48.0041 18.535C48.1541 18.635 48.3241 18.73 48.5141 18.82C48.7041 18.9 48.8991 18.98 49.0991 19.06L50.4341 19.615C50.7241 19.735 50.9891 19.875 51.2291 20.035C51.4691 20.195 51.6741 20.38 51.8441 20.59C52.0241 20.8 52.1641 21.045 52.2641 21.325C52.3641 21.595 52.4141 21.91 52.4141 22.27C52.4141 22.67 52.3341 23.045 52.1741 23.395C52.0141 23.745 51.7791 24.055 51.4691 24.325C51.1691 24.585 50.7991 24.795 50.3591 24.955C49.9291 25.105 49.4391 25.18 48.8891 25.18ZM54.1979 25V15.19H55.9379V25H54.1979ZM62.5413 25.18C61.8813 25.18 61.2663 25.07 60.6963 24.85C60.1363 24.63 59.6463 24.305 59.2263 23.875C58.8163 23.445 58.4963 22.915 58.2663 22.285C58.0363 21.655 57.9213 20.935 57.9213 20.125C57.9213 19.325 58.0413 18.61 58.2813 17.98C58.5213 17.34 58.8463 16.8 59.2563 16.36C59.6763 15.92 60.1663 15.585 60.7263 15.355C61.2963 15.125 61.9063 15.01 62.5563 15.01C63.2563 15.01 63.8463 15.14 64.3263 15.4C64.8163 15.65 65.2163 15.935 65.5263 16.255L64.5963 17.38C64.3463 17.14 64.0663 16.94 63.7563 16.78C63.4563 16.61 63.0763 16.525 62.6163 16.525C62.1763 16.525 61.7763 16.61 61.4163 16.78C61.0663 16.94 60.7613 17.175 60.5013 17.485C60.2513 17.785 60.0563 18.155 59.9163 18.595C59.7763 19.035 59.7063 19.53 59.7063 20.08C59.7063 21.2 59.9563 22.08 60.4563 22.72C60.9663 23.35 61.7163 23.665 62.7063 23.665C62.9863 23.665 63.2513 23.63 63.5013 23.56C63.7513 23.48 63.9563 23.37 64.1163 23.23V21.115H62.2563V19.69H65.6763V24.01C65.3463 24.34 64.9063 24.62 64.3563 24.85C63.8163 25.07 63.2113 25.18 62.5413 25.18ZM67.8503 25V15.19H69.6353L72.6953 20.71L73.7003 22.795H73.7603C73.7203 22.285 73.6703 21.74 73.6103 21.16C73.5603 20.57 73.5353 20 73.5353 19.45V15.19H75.2003V25H73.4153L70.3553 19.48L69.3503 17.395H69.2903C69.3303 17.915 69.3753 18.46 69.4253 19.03C69.4853 19.6 69.5153 20.16 69.5153 20.71V25H67.8503ZM84.372 25.18C83.802 25.18 83.287 25.1 82.827 24.94C82.377 24.77 81.987 24.505 81.657 24.145C81.337 23.785 81.087 23.325 80.907 22.765C80.737 22.195 80.652 21.505 80.652 20.695V15.19H82.392V20.83C82.392 21.36 82.437 21.81 82.527 22.18C82.627 22.54 82.762 22.83 82.932 23.05C83.112 23.27 83.322 23.43 83.562 23.53C83.802 23.62 84.072 23.665 84.372 23.665C84.672 23.665 84.947 23.62 85.197 23.53C85.447 23.43 85.662 23.27 85.842 23.05C86.022 22.83 86.162 22.54 86.262 22.18C86.362 21.81 86.412 21.36 86.412 20.83V15.19H88.077V20.695C88.077 21.505 87.992 22.195 87.822 22.765C87.652 23.325 87.402 23.785 87.072 24.145C86.752 24.505 86.362 24.77 85.902 24.94C85.452 25.1 84.942 25.18 84.372 25.18ZM90.5261 25V15.19H93.6161C94.1561 15.19 94.6561 15.24 95.1161 15.34C95.5861 15.44 95.9911 15.61 96.3311 15.85C96.6711 16.09 96.9361 16.405 97.1261 16.795C97.3161 17.175 97.4111 17.65 97.4111 18.22C97.4111 18.76 97.3161 19.23 97.1261 19.63C96.9361 20.03 96.6711 20.365 96.3311 20.635C96.0011 20.895 95.6061 21.09 95.1461 21.22C94.6961 21.34 94.2061 21.4 93.6761 21.4H92.2661V25H90.5261ZM92.2661 20.005H93.5411C94.9811 20.005 95.7011 19.41 95.7011 18.22C95.7011 17.6 95.5111 17.175 95.1311 16.945C94.7611 16.705 94.2111 16.585 93.4811 16.585H92.2661V20.005Z" fill="#250F8A"/>
</svg>
